<svg width="75" height="72" viewBox="0 0 75 72" fill="none" xmlns="http://www.w3.org/2000/svg">
<path d="M44.3816 53.2245L44.3788 54.4897L58.1823 54.539C59.242 54.5433 60.1012 53.6947 60.1055 52.6405L60.1041 51.5077C60.1083 50.448 60.9674 49.5999 62.027 49.6042L63.16 49.6078C64.2142 49.6065 65.0682 48.7586 65.0725 47.7044L65.1839 16.0444C65.1826 14.9902 64.3347 14.1361 63.2805 14.1319L44.5225 14.0594L44.5174 15.8354L47.4422 15.8444L47.4332 18.7693L44.5029 18.7603L44.3925 49.8195L47.3229 49.8285L47.3139 52.7534L44.3835 52.7499L44.3816 53.2245ZM49.5752 52.7613L49.5892 49.8363L52.5142 49.8503L52.5051 52.7702L49.5752 52.7613ZM49.6937 18.7764L49.7077 15.8514L52.6331 15.8551L52.6191 18.7801L49.6937 18.7764ZM54.7721 52.7776L54.7812 49.8523L57.7063 49.8663L57.6973 52.7911L54.7721 52.7776ZM54.8904 18.7932L54.8994 15.8629L57.8245 15.8769L57.8155 18.8072L54.8904 18.7932ZM60.077 18.8147L60.091 15.8897L63.0213 15.8932L63.0073 18.8182L60.077 18.8147Z" fill="#3D2E23"/>
<path d="M33.5644 50.2588C33.5613 50.6121 33.8477 50.8999 34.2009 50.9035L38.4123 50.9415C38.7655 50.9446 39.0644 50.6636 39.062 50.3104L39.0786 48.7077C39.0817 48.3544 38.8007 48.0666 38.4421 48.063L34.2307 48.025C33.8774 48.0219 33.5841 48.3029 33.581 48.6561L33.5644 50.2588Z" fill="#8AA581"/>
<path d="M33.6124 45.8995C33.6039 46.2528 33.8903 46.5406 34.249 46.5442L38.4604 46.5822C38.8136 46.5853 39.102 46.299 39.1051 45.9457L39.1216 44.3436C39.1246 43.9903 38.8383 43.702 38.4856 43.699L34.2691 43.6611C33.9159 43.6581 33.6225 43.9391 33.6196 44.2973L33.6124 45.8995Z" fill="#8AA581"/>
<path d="M33.6496 41.5355C33.6466 41.8888 33.933 42.1766 34.2862 42.1802L35.8888 42.1968C36.2366 42.1999 36.5249 41.9191 36.533 41.5712C36.5329 41.5662 36.5329 41.5662 36.5328 41.5607L36.5495 39.958C36.5493 39.953 36.5493 39.953 36.5493 39.9475C36.5474 39.5999 36.2611 39.3171 35.913 39.3133L34.3103 39.2967C33.9571 39.2936 33.6692 39.5801 33.6608 39.9329L33.6496 41.5355Z" fill="#8AA581"/>
<path d="M36.5325 41.5603C36.5326 41.5658 36.5326 41.5658 36.5327 41.5708C36.5346 41.9184 36.8208 42.2017 37.1637 42.21L38.7712 42.2215C39.1245 42.2245 39.4178 41.9381 39.4207 41.5853L39.4324 39.9828C39.441 39.6295 39.1545 39.3417 38.7959 39.3381L37.1934 39.321C36.8456 39.3179 36.5572 39.5987 36.5492 39.9466C36.5492 39.9521 36.5492 39.9521 36.5493 39.9571L36.5325 41.5603Z" fill="#8AA581"/>
<path d="M41.9007 16.4304L31.4756 16.3978L31.3054 53.176L44.3816 53.2245L44.384 52.75L44.393 49.8197L44.5028 18.7603L44.5153 16.4359L41.9007 16.4304ZM34.2857 42.1799C33.9324 42.1768 33.6461 41.8885 33.6492 41.5352L33.6608 39.9327C33.6694 39.5795 33.9573 39.293 34.3104 39.2966L35.913 39.3132C36.2608 39.3163 36.5471 39.5991 36.5494 39.9474C36.558 39.5996 36.8458 39.3187 37.1936 39.3217L38.7961 39.3389C39.1543 39.3418 39.4407 39.6301 39.4326 39.9836L39.421 41.5861C39.4179 41.9393 39.124 42.2257 38.7714 42.2222L37.1639 42.2108C36.8211 42.202 36.5348 41.9192 36.5329 41.5715C36.5243 41.9193 36.2363 42.2008 35.8887 42.1972L34.2857 42.1799ZM34.2489 46.544C33.8906 46.5411 33.6043 46.2528 33.6124 45.8993L33.6185 44.2969C33.6214 43.9386 33.9154 43.6573 34.268 43.6607L38.4845 43.6986C38.8377 43.7017 39.124 43.99 39.1205 44.3431L39.104 45.9453C39.1009 46.2985 38.8126 46.5849 38.4593 46.5818L34.2489 46.544ZM34.2311 48.0253L38.4425 48.0634C38.8007 48.0663 39.0821 48.3548 39.079 48.7081L39.0624 50.3107C39.0643 50.6638 38.7659 50.945 38.4126 50.9419L34.2012 50.9038C33.848 50.9008 33.5616 50.6124 33.5647 50.2591L33.5813 48.6565C33.5844 48.3032 33.8779 48.0217 34.2311 48.0253Z" fill="#8AA581"/>
<path d="M12.8916 16.3298L12.7634 53.1074L31.3054 53.1759L31.4756 16.3977L12.8916 16.3298Z" fill="#A27B5C"/>
<path d="M23.1052 7.41436L22.5994 7.41198C21.9035 7.41064 21.3347 7.40376 21.3347 7.40376L21.3283 10.7292L36.1122 10.7778L36.1292 7.45719C36.1292 7.45719 35.5655 7.45514 34.8697 7.45931L34.3582 7.45193L23.1052 7.41436Z" fill="#2D2219"/>
<path d="M12.756 56.2908L12.7493 57.814C12.7502 57.9825 12.8778 58.119 13.0463 58.1181L44.0687 58.223C44.2318 58.2221 44.3683 58.0946 44.3674 57.9315L44.3739 56.3979L12.756 56.2908Z" fill="#2D2219"/>
<path d="M12.7635 53.1077L12.7561 56.291L44.3741 56.3976L44.3785 54.4893L44.3817 53.2248L31.3055 53.1763L12.7635 53.1077Z" fill="#2C2E23"/>
<path d="M41.9008 16.4307L44.5149 16.4361L44.5164 15.8354L44.5215 14.0594L44.5302 11.108C44.5343 10.9393 44.4019 10.8134 44.2332 10.8148L36.1113 10.779L21.3274 10.7304L13.2056 10.6996C13.0476 10.7058 12.9112 10.8329 12.9125 10.9966L12.8917 16.3302L31.4755 16.3986L41.9008 16.4307Z" fill="#2C2E23"/>
<path d="M23.1108 5.70695L23.1052 7.41462L34.358 7.45269L34.3686 5.75036L23.1108 5.70695Z" fill="#2C2E23"/>
<path d="M44.3842 52.7504L44.3818 53.2249L44.379 54.4901L44.3747 56.3978L44.3683 57.9315C44.3691 58.0945 44.2331 58.2222 44.0696 58.2229L13.0465 58.1184C12.878 58.1193 12.7508 57.9834 12.7495 57.8142L12.7562 56.2911L12.7636 53.1078L12.8919 16.3303L12.9126 10.9967C12.9119 10.8331 13.0478 10.7059 13.2058 10.6997L21.3276 10.7305L36.1114 10.7791L44.2334 10.8149C44.4019 10.8141 44.5345 10.9394 44.5303 11.1081L44.5217 14.0595L44.5166 15.8355" stroke="black" stroke-miterlimit="10"/>
<path d="M44.5024 18.7606L44.3926 49.8199" stroke="black" stroke-miterlimit="10"/>
<path d="M12.8917 16.3302L31.4757 16.3981L41.9008 16.4307L44.5149 16.4361" stroke="black" stroke-miterlimit="10"/>
<path d="M12.7561 56.291L44.3741 56.3976" stroke="black" stroke-miterlimit="10"/>
<path d="M12.7636 53.108L31.3056 53.1765L44.3818 53.225" stroke="black" stroke-miterlimit="10"/>
<path d="M21.3275 10.7302L21.332 8.41522C21.3331 7.85886 21.788 7.41019 22.3444 7.41226C22.4266 7.41257 22.5116 7.41281 22.5987 7.41295L23.1045 7.41534L34.3573 7.45342L34.8688 7.46079C34.9572 7.46026 35.0436 7.45983 35.1269 7.45949C35.6797 7.45719 36.126 7.9073 36.1232 8.46017L36.1113 10.7793" stroke="black" stroke-miterlimit="10"/>
<path d="M23.1052 7.41462L23.1075 6.70751C23.1093 6.15501 23.5588 5.70867 24.1113 5.71081L33.3663 5.7465C33.9195 5.74863 34.3658 6.19952 34.3624 6.75272L34.358 7.45269" stroke="black" stroke-miterlimit="10"/>
<path d="M44.3785 54.4897L58.1821 54.539C59.2418 54.5433 60.101 53.6947 60.1052 52.6405L60.1038 51.5077C60.1081 50.448 60.9671 49.5999 62.0268 49.6042L63.1598 49.6078C64.2139 49.6065 65.068 48.7586 65.0722 47.7044L65.1836 16.0444C65.1824 14.9902 64.3344 14.1361 63.2803 14.1319L44.5222 14.0594" stroke="black" stroke-miterlimit="10"/>
<path d="M54.7723 52.7778L57.6973 52.7918L57.7063 49.867L54.7814 49.8525L54.7723 52.7778Z" stroke="black" stroke-miterlimit="10"/>
<path d="M49.5754 52.7616L52.5059 52.7701L52.5149 49.8508L49.5896 49.8361L49.5754 52.7616Z" stroke="black" stroke-miterlimit="10"/>
<path d="M44.384 52.7504L47.3144 52.7539L47.3229 49.8288L44.3925 49.8198L44.384 52.7504Z" stroke="black" stroke-miterlimit="10"/>
<path d="M54.8907 18.7938L57.8162 18.8079L57.8247 15.8774L54.8997 15.8634L54.8907 18.7938Z" stroke="black" stroke-miterlimit="10"/>
<path d="M49.6938 18.7766L52.619 18.7808L52.6331 15.8552L49.7078 15.8516L49.6938 18.7766Z" stroke="black" stroke-miterlimit="10"/>
<path d="M60.0772 18.8153L63.0075 18.8188L63.0215 15.8938L60.0912 15.8903L60.0772 18.8153Z" stroke="black" stroke-miterlimit="10"/>
<path d="M44.5024 18.7607L47.4328 18.7697L47.4418 15.8448L44.5164 15.8356L44.5149 16.4363L44.5024 18.7607Z" stroke="black" stroke-miterlimit="10"/>
<path d="M41.9074 14.0541L41.9008 16.4308L41.7869 49.4508" stroke="black" stroke-miterlimit="10" stroke-dasharray="3 4 8 3 4 8"/>
<path d="M31.4759 16.3981L31.3057 53.1764" stroke="black" stroke-miterlimit="10"/>
</svg>
